<svg xmlns="http://www.w3.org/2000/svg" viewBox="0 0 210 210"><g fill="none" stroke-miterlimit="10" font-family="none" font-weight="none" font-size="none" text-anchor="none" style="mix-blend-mode:normal"><path d="M0 210V0h210v210z"/><path d="M58.8 8.4C42 8.4 20.984 26.25 11.714 42.197c-2.215 3.806-2.313 4.348-.46 2.789.772-.64 2.691-1.805 4.266-2.576 15.422-7.563 31.73.574 32.616 16.259.574 10.139-2.527 16.373-15.619 31.418-10.09 11.583-14.7 18.161-17.932 25.626-6.776 15.652-6.71 33.567.164 48.038C24.626 184.52 42.607 200.78 67.2 201.6h12.6l-12.6-4.2c-16.8-8.4-21.82-17.916-26.234-34.437-1.804-6.743-1.771-18.818.05-24.954 4.528-15.274 11.861-23.428 33.354-37.094 12.911-8.187 17.997-12.403 22.804-18.228C113.4 63 105 29.4 84.968 16.144 74.828 9.45 67.2 8.4 58.8 8.4zm93.63 35.191l-1.542 2.084c-3.445 4.709-5.676 11.78-6.283 19.884l-.312 4.332-2.133 1.886c-4.987 4.43-16.373 10.73-29.35 16.259l-5.923 2.51 4.807.312c14.306.919 28.432 5.775 46.38 15.963 6.366 3.626 10.106 5.102 14.7 5.84 6.054.952 14.946.066 19.097-1.935l1.329-.624-.016-5.365c-.099-19.162-11.928-35.749-29.663-41.606-2.083-.672-2.444-.984-2.707-2.28-1.034-5.25-4.101-12.14-6.874-15.439zM97.273 98.782c-2.38.131-4.594.394-6.497.804-2.166.46-5.053 1.329-6.464 1.936l-2.543 1.116 7.875.295c22.64.82 41.278 12.255 53.615 32.894 2.297 3.872 2.527 4.086 4.906 4.922 5.594 1.953 13.174.935 21.919-2.97 8.646-3.855 16.029-4.724 21.918-2.575 2.396.886 2.346.87 2.33-.082-.016-1.723-2.297-5.627-4.364-7.481-2.773-2.445-6.3-3.626-13.552-4.528-12.42-1.56-17.062-3.282-29.875-11.058-9.762-5.94-15.57-8.4-26.07-11.042-7.284-1.82-16.062-2.625-23.198-2.231zm-8.187 12.6c-2.002-.05-3.987.05-5.923.328-13.584 1.936-24.527 9.844-29.4 21.28l-.935 2.198 2.445-2.347c10.385-9.843 25.626-13.157 39.08-8.482 15.815 5.496 25.314 19.146 25.216 36.225-.099 15.832-7.662 30.073-22.969 36.816L84 201.6h75.6s-3.954-13.912-21-16.8h-4.2s12.6-29.4-6.677-53.107c-9.368-11.534-24.593-19.884-38.637-20.311zM80.21 134.4c-1.05.033-2.116.131-3.183.279-22.772 3.412-32.057 30.5-15.864 46.25 16.98 16.537 45.855 6.102 47.955-17.342 1.395-15.619-12.977-29.614-28.908-29.187zm-.295 15.356c2.083-.197 4.298.115 6.48 1.05 7.252 3.101 9.368 12.78 4.036 18.523-7.268 7.81-20.458 3.593-21.262-6.825-.542-6.89 4.495-12.14 10.746-12.748z" fill="#f08303"/></g></svg>