<svg xmlns="http://www.w3.org/2000/svg" viewBox="-4.9 -7.2 24 24"><path d="M14.7 4.6a7.8 7.8 0 0 1 .4-.5c.2-.1 1.1 0 1.8-.4s1.5-1.5 1.7-1.9c.3-.4.3-.7.3-1.2l.2-1-1.3.2a3 3 0 0 0-1.2.6c-.3.3-.2 0-.6.4a4 4 0 0 0-1 1.6c-.1.7 0 1.5 0 1.6l-.3.3V1.2l.7-.7c.3-.2 1-.1 1.5-.6.5-.3 1.4-1.4 1.2-2.4-.1-1-.6-1.7-.6-1.7s-1 .2-1.6.7c-.6.5-1.3 1.6-1.2 2.4.1.8.6 1.1.6 1.4 0 .2-.5.5-.6.6a1.7 1.7 0 0 1 0-.3l-.2-1-.2-.6.1-.8v-1.3l-.1-1.3a4 4 0 0 0-.4-.9l-.2-.4-.6-.5-.4-.4-.5-.3-.1-.3v.5c-.1.2-.3.2-.3.6l-.2 1c0 .4.1 1 .3 1.4.1.3.3.8.7 1.3l1.5 1.5.2.8.2 1.1c-.2 0-.4-.1-.5-.3-.2 0-.1-.3-.2-.6a6 6 0 0 0-1-1.7c-.5-.5-1.1-.7-1.7-.8-.6-.1-1.7.4-1.7.4l.4 1.3c.2.6 1.4 1.3 2 1.5.5.3 1.9 0 2 .1l.5.3h.2v2.2l-.2.5h-.1l-.3-.9a5 5 0 0 0-1.3-1.5c-.4-.4-1.6-.7-2-.6h-1l.4 1.2c.1.3 0 .5.2.8.1.3.2.4.7.8.4.4 1 .5 1.6.5l1.6-.2.2.1.1.7c0 .3 0 1-.2 1.6l-.4 1.5-.2.2-.2-.2-.1-1.4c-.2-.8-1.2-1.7-1.8-2-.7-.4-2-.4-2-.4l.1 1 .2 1c.2.5.8 1 1.6 1.5.7.4 1.8.3 2 .4l.1.3-.1.5c-.1.2-.4 1-.9 1.7l-.5.6-.4-.4.2-1.6c0-.8-.5-1.2-1-1.7L8.9 7l-.1 1.1c0 .6.4 1.3.9 1.8s1.4.5 1.7.8l.5.6-.5.7-1.4 1.2a2 2 0 0 1-.2-.4c0-.1.3-.3.2-1.5 0-1-1.2-1.7-1.5-1.9l-.8-.5s-.8 1.4 0 2.8c.5.8 2 1 2 1.2l.2.4-.5.3-1.1.6c-.5.2-.6.1-1.4.6l-2 1.5.3.5h.1c.1 0 0-.3.2-.4 0 0 1-1 1.3-1.1l1.2-.6 1.1-.6.1.1.6.1c.2.2.6 1 1 1.2.2.2.8.7 1.5.5.6-.2 1-.2 1.3-.4.3-.2.4-.6.4-.6l-.2-.3c-.1-.1-.6-.9-1-1-.3-.2-1.1-.5-1.7-.3l-1.1.7h-.7l.3-.2a31.7 31.7 0 0 0 2.3-2h.5l1 .9c.5.2 1.4.6 2 .2.7-.3 1.2-1 1.2-1s-.2-.4-.5-.6c-.3-.2-1.1-.5-1.5-.5l-1.1.1-1 .7h-.4l.3-.5.8-1V10l.6-.1 1 .4h1c.3 0 .7.2 1.5 0s1.6-1 1.6-1l-.2-.1a4 4 0 0 1-.4-.5c-.1-.2-.4-.4-1-.7-.4-.3-1.2 0-1.4 0-.3.1-.6.1-1 .4-.4.3-.9 1.2-1 1.3h-.6l.1-.4.8-1.7.6-.4h.6a3 3 0 0 0 1.9 0c.6-.3 1.3-1.3 1.5-1.8l.3-1.2h-1.8c-.6 0-1.4.3-1.9.9-.5.6-.5 1.8-.7 2l-.4.2.3-1.9zm-15.2 0a7.8 7.8 0 0 0-.4-.5c-.2-.1-1.1 0-1.8-.4a6.6 6.6 0 0 1-1.7-1.9c-.3-.4-.3-.7-.3-1.2l-.2-1 1.3.2 1.2.6c.3.3.2 0 .6.4.4.4.8 1 1 1.6.1.7 0 1.5 0 1.6l.3.3V3.1a13.5 13.5 0 0 1 0-1.5v-.4l-.7-.7c-.3-.2-1-.1-1.5-.6-.5-.3-1.4-1.4-1.2-2.4.1-1 .6-1.7.6-1.7s1 .2 1.6.7c.6.5 1.3 1.6 1.2 2.4-.1.8-.6 1.1-.6 1.4 0 .2.5.5.6.6V.6l.2-1 .2-.6-.1-.8v-1.3l.1-1.3.4-.9.2-.4.6-.5.4-.4.5-.3.1-.3v.5c.1.2.3.2.3.6l.2 1c0 .4-.1 1-.3 1.4-.1.3-.3.8-.7 1.3L.1-.9l-.2.8L-.3 1C-.1 1 .1.9.2.7.4.7.3.4.4.1a6 6 0 0 1 1-1.7c.5-.5 1.1-.7 1.7-.8.6-.1 1.7.4 1.7.4L4.4-.7C4.2-.1 3 .6 2.4.8 1.9 1.1.5.8.4.9l-.5.3h-.2v2.2l.2.5H0L.3 3a5 5 0 0 1 1.3-1.5c.4-.4 1.6-.7 2-.6h1l-.5 1.2c-.1.3 0 .5-.2.8-.1.3-.2.4-.7.8-.4.4-1 .5-1.6.5L.1 4l-.2.1-.1.7c0 .3 0 1 .2 1.5l.4 1.6.2.2.2-.2.1-1.4c.2-.7 1.2-1.7 1.8-2 .7-.4 2-.4 2-.4l-.1 1-.2 1c-.2.5-.8 1-1.6 1.5-.7.4-1.8.3-2 .4l-.1.3.1.5c.1.2.4 1 .9 1.7l.5.6.4-.4-.2-1.6c0-.8.5-1.2 1-1.7L5.3 7l.1 1.1c0 .6-.4 1.3-.9 1.8s-1.4.5-1.7.8l-.5.6.5.7 1.3 1.2.2-.4c0-.1-.3-.3-.2-1.5 0-1 1.2-1.7 1.5-1.9l.8-.5s.8 1.4 0 2.8c-.5.8-2 1-2 1.2l-.2.4.5.3 1.1.6c.5.2.6.1 1.4.6l2 1.5-.3.5h-.1c-.1 0 0-.3-.2-.4 0 0-1-1-1.3-1.1a6.3 6.3 0 0 0-1.2-.7L5 14.1l-.1.1-.6.1c-.2.2-.6 1-1 1.2-.2.2-.8.7-1.5.5-.6-.2-1-.2-1.3-.4-.3-.2-.4-.6-.4-.6l.2-.4c0-.2.6-.8 1-1 .3-.1 1.1-.4 1.7-.2l1.1.7h.7l-.3-.2-1.7-1.4a7.2 7.2 0 0 1-.6-.6h-.5l-1 .9c-.5.1-1.4.6-2 .2-.7-.3-1.2-1-1.2-1s.2-.4.5-.6c.3-.2 1.1-.6 1.6-.6l1 .1c.5.1 1 .7 1.2.7h.3l-.3-.5-.8-1v-.2l-.6-.1-1 .4h-1c-.3 0-.7.2-1.5 0s-1.6-1-1.6-1l.2-.1a4 4 0 0 0 .4-.5c.1-.2.4-.4 1-.7.4-.3 1.2 0 1.4 0 .3.1.6.1 1 .4.4.3.9 1.2 1 1.3h.6a2 2 0 0 0-.1-.4A47 47 0 0 1 0 7.5a11.2 11.2 0 0 1-.6-.4h-.6a3 3 0 0 1-1.9 0 4.4 4.4 0 0 1-1.5-1.8l-.3-1.1h1.8c.6 0 1.4.3 1.9.9.5.6.5 1.8.7 2l.4.2-.3-1.9z"/></svg>