<svg xmlns="http://www.w3.org/2000/svg" xmlns:xlink="http://www.w3.org/1999/xlink">
    <symbol viewBox="0 0 32 32" id="svg-external-truck" xmlns="http://www.w3.org/2000/svg">
        <path d="M0 4c0-.736.596-1.334 1.334-1.334h20c.736 0 1.332.598 1.332 1.334v17.334a1.334 1.334 0 0 1-1.332 1.332h-20A1.334 1.334 0 0 1 0 21.334V4zm2.666 1.334V20H20V5.334H2.666z" fill="var(--color-truck_body)"/>
        <path d="M20 10.666c0-.736.596-1.332 1.334-1.332h5.332c.354 0 .694.14.944.39l4 4c.241.241.39.574.39.942v6.668a1.334 1.334 0 0 1-1.334 1.332h-9.332A1.334 1.334 0 0 1 20 21.334V10.666zM22.666 12v8h6.668v-4.78L26.114 12h-3.448z" fill="var(--color-truck_cab)"/>
        <path d="M24.666 29.334a4.667 4.667 0 0 0 0-9.334 4.667 4.667 0 0 0 0 9.334zm0-2.668a2 2 0 1 1 0-4 2 2 0 1 1 0 4z M7.334 29.334a4.667 4.667 0 0 0 0-9.334 4.667 4.667 0 0 0 0 9.334zm0-2.668a2 2 0 1 1 0-4 2 2 0 1 1 0 4z" fill="var(--color-truck_wheels)"/>
    </symbol>
</svg>