<svg xmlns="http://www.w3.org/2000/svg" viewBox="0 0 50 50"><path d="M14 2c-4 0-9.004 4.25-11.21 8.047-.528.906-.552 1.035-.11.664.183-.152.64-.43 1.015-.613 3.672-1.801 7.555.136 7.766 3.87.137 2.415-.602 3.9-3.719 7.481-2.402 2.758-3.5 4.324-4.27 6.102-1.613 3.726-1.597 7.992.04 11.437C5.863 43.934 10.145 47.805 16 48h3l-3-1c-4-2-5.195-4.266-6.246-8.2-.43-1.605-.422-4.48.012-5.94 1.078-3.637 2.824-5.579 7.941-8.833 3.074-1.949 4.285-2.953 5.43-4.34C27 15 25 7 20.23 3.845 17.816 2.25 16 2 14 2zm22.293 8.379l-.367.496c-.82 1.121-1.352 2.805-1.496 4.734l-.075 1.032-.507.449c-1.188 1.055-3.899 2.555-6.989 3.87l-1.41.599 1.145.074c3.406.219 6.77 1.375 11.043 3.8 1.515.864 2.406 1.215 3.5 1.391 1.441.227 3.558.016 4.547-.46l.316-.15-.004-1.276c-.023-4.563-2.84-8.512-7.062-9.907-.496-.16-.582-.234-.645-.543-.246-1.25-.977-2.89-1.637-3.675zM23.16 23.519a10.19 10.19 0 0 0-1.547.192c-.515.11-1.203.316-1.539.46l-.605.267 1.875.07c5.39.195 9.828 2.918 12.765 7.832.547.922.602.972 1.168 1.172 1.332.465 3.137.222 5.22-.707 2.058-.918 3.816-1.125 5.218-.614.57.211.558.207.555-.02-.004-.41-.547-1.339-1.04-1.78-.66-.582-1.5-.864-3.226-1.078-2.957-.372-4.063-.782-7.113-2.633-2.325-1.414-3.707-2-6.207-2.63-1.735-.433-3.825-.624-5.524-.53zm-1.95 3a8.445 8.445 0 0 0-1.41.079c-3.234.46-5.84 2.343-7 5.066l-.222.523.582-.558c2.473-2.344 6.102-3.133 9.305-2.02 3.765 1.309 6.027 4.559 6.004 8.625-.024 3.77-1.824 7.16-5.469 8.766l-3 1h18s-.941-3.313-5-4h-1s3-7-1.59-12.645c-2.23-2.746-5.855-4.734-9.2-4.835zM19.099 32c-.25.008-.504.031-.758.066-5.422.813-7.633 7.262-3.777 11.012 4.042 3.938 10.917 1.453 11.417-4.129.332-3.719-3.09-7.05-6.882-6.949zm-.07 3.656a3.15 3.15 0 0 1 1.542.25c1.727.739 2.23 3.043.961 4.41-1.73 1.86-4.87.856-5.062-1.625-.13-1.64 1.07-2.89 2.558-3.035z"/></svg>